/app/bin/..//bin/ffmpeg -hide_banner -y -y -r 10 -start_number 0 -start_number_range 1 -i /home/yuceff28/Projects/albasheer/news_info/frame%04d.png -i /home/yuceff28/Projects/albasheer/news_info/KritaTempPalettegen_%06d.png -lavfi [0:v][1:v]paletteuse=dither=sierra2_4a:diff_mode=none -f gif -loop 0 -gifflags +transdiff /home/yuceff28/Projects/albasheer/news_info/ramazan2.gif
=====================================================
Input #0, image2, from '/home/yuceff28/Projects/albasheer/news_info/frame%04d.png':
  Duration: 00:00:02.92, start: 0.000000, bitrate: N/A
  Stream #0:0: Video: png, rgba(pc, gbr/unknown/unknown), 1920x1080 [SAR 11811:11811 DAR 16:9], 25 fps, 25 tbr, 25 tbn
Input #1, image2, from '/home/yuceff28/Projects/albasheer/news_info/KritaTempPalettegen_%06d.png':
  Duration: 00:00:00.04, start: 0.000000, bitrate: N/A
  Stream #1:0: Video: png, rgba(pc, gbr/unknown/unknown), 16x16 [SAR 1:1 DAR 1:1], 25 fps, 25 tbr, 25 tbn
Stream mapping:
  Stream #0:0 (png) -> paletteuse
  Stream #1:0 (png) -> paletteuse
  paletteuse:default -> Stream #0:0 (gif)
Press [q] to stop, [?] for help
Output #0, gif, to '/home/yuceff28/Projects/albasheer/news_info/ramazan2.gif':
  Metadata:
    encoder         : Lavf60.16.100
  Stream #0:0: Video: gif, pal8(pc, gbr/unknown/unknown, progressive), 1920x1080 [SAR 1:1 DAR 16:9], q=2-31, 200 kb/s, 10 fps, 100 tbn
    Metadata:
      encoder         : Lavc60.31.102 gif
frame=    0 fps=0.0 q=-0.0 size=       0kB time=00:00:00.00 bitrate=N/A speed=   0x    [in#0/image2 @ 0x5588a5bd0300] Thread message queue blocking; consider raising the thread_queue_size option (current value: 8)
frame=    3 fps=1.8 q=-0.0 size=    1024kB time=00:00:00.30 bitrate=27962.0kbits/s speed=0.185x    frame=    4 fps=1.7 q=-0.0 size=    1024kB time=00:00:00.40 bitrate=20971.5kbits/s speed=0.174x    frame=    6 fps=2.0 q=-0.0 size=    1792kB time=00:00:00.60 bitrate=24466.8kbits/s speed=0.199x    frame=    7 fps=1.9 q=-0.0 size=    1792kB time=00:00:00.70 bitrate=20971.5kbits/s speed=0.19x    frame=    9 fps=2.0 q=-0.0 size=    2816kB time=00:00:00.90 bitrate=25631.9kbits/s speed=0.204x    frame=   10 fps=2.0 q=-0.0 size=    2816kB time=00:00:01.00 bitrate=23068.7kbits/s speed=0.196x    frame=   12 fps=2.0 q=-0.0 size=    3584kB time=00:00:01.20 bitrate=24466.8kbits/s speed=0.203x    frame=   13 fps=2.0 q=-0.0 size=    3584kB time=00:00:01.30 bitrate=22584.7kbits/s speed= 0.2x    frame=   15 fps=2.1 q=-0.0 size=    4352kB time=00:00:01.50 bitrate=23767.7kbits/s speed=0.207x    frame=   16 fps=2.0 q=-0.0 size=    4352kB time=00:00:01.60 bitrate=22282.2kbits/s speed=0.205x    frame=   18 fps=2.1 q=-0.0 size=    5120kB time=00:00:01.80 bitrate=23301.7kbits/s speed=0.209x    frame=   19 fps=2.1 q=-0.0 size=    5120kB time=00:00:01.90 bitrate=22075.3kbits/s speed=0.208x    frame=   21 fps=2.1 q=-0.0 size=    5888kB time=00:00:02.10 bitrate=22968.8kbits/s speed=0.211x    frame=   22 fps=2.1 q=-0.0 size=    5888kB time=00:00:02.20 bitrate=21924.8kbits/s speed=0.21x    frame=   24 fps=2.1 q=-0.0 size=    6912kB time=00:00:02.40 bitrate=23593.0kbits/s speed=0.213x    frame=   25 fps=2.1 q=-0.0 size=    6912kB time=00:00:02.50 bitrate=22649.2kbits/s speed=0.211x    frame=   27 fps=2.1 q=-0.0 size=    7680kB time=00:00:02.70 bitrate=23301.7kbits/s speed=0.213x    frame=   28 fps=2.1 q=-0.0 size=    7680kB time=00:00:02.80 bitrate=22469.5kbits/s speed=0.211x    frame=   30 fps=2.1 q=-0.0 size=    8448kB time=00:00:03.00 bitrate=23068.7kbits/s speed=0.211x    frame=   31 fps=2.1 q=-0.0 size=    8448kB time=00:00:03.10 bitrate=22324.5kbits/s speed=0.21x    frame=   33 fps=2.1 q=-0.0 size=    9216kB time=00:00:03.30 bitrate=22878.0kbits/s speed=0.21x    frame=   34 fps=2.1 q=-0.0 size=    9216kB time=00:00:03.40 bitrate=22205.1kbits/s speed=0.209x    frame=   36 fps=2.1 q=-0.0 size=   10240kB time=00:00:03.60 bitrate=23301.7kbits/s speed=0.209x    frame=   37 fps=2.1 q=-0.0 size=   10240kB time=00:00:03.70 bitrate=22671.9kbits/s speed=0.208x    frame=   39 fps=2.1 q=-0.0 size=   11008kB time=00:00:03.90 bitrate=23122.4kbits/s speed=0.209x    frame=   40 fps=2.1 q=-0.0 size=   11008kB time=00:00:04.00 bitrate=22544.4kbits/s speed=0.206x    frame=   41 fps=2.1 q=-0.0 size=   11008kB time=00:00:04.10 bitrate=21994.5kbits/s speed=0.206x    frame=   42 fps=2.1 q=-0.0 size=   11776kB time=00:00:04.20 bitrate=22968.8kbits/s speed=0.205x    frame=   43 fps=2.0 q=-0.0 size=   11776kB time=00:00:04.30 bitrate=22434.6kbits/s speed=0.203x    frame=   44 fps=2.0 q=-0.0 size=   11776kB time=00:00:04.40 bitrate=21924.8kbits/s speed=0.203x    frame=   46 fps=2.0 q=-0.0 size=   12544kB time=00:00:04.60 bitrate=22339.2kbits/s speed=0.202x    frame=   47 fps=2.0 q=-0.0 size=   12544kB time=00:00:04.70 bitrate=21863.9kbits/s speed=0.202x    frame=   48 fps=2.0 q=-0.0 size=   13312kB time=00:00:04.80 bitrate=22719.1kbits/s speed=0.202x    frame=   49 fps=2.0 q=-0.0 size=   13312kB time=00:00:04.90 bitrate=22255.5kbits/s speed=0.202x    frame=   50 fps=2.0 q=-0.0 size=   13312kB time=00:00:05.00 bitrate=21810.4kbits/s speed=0.202x    frame=   52 fps=2.0 q=-0.0 size=   14336kB time=00:00:05.20 bitrate=22584.7kbits/s speed=0.201x    frame=   54 fps=2.0 q=-0.0 size=   15104kB time=00:00:05.40 bitrate=22913.3kbits/s speed=0.202x    frame=   55 fps=2.0 q=-0.0 size=   15104kB time=00:00:05.50 bitrate=22496.7kbits/s speed=0.202x    frame=   57 fps=2.0 q=-0.0 size=   15872kB time=00:00:05.70 bitrate=22811.1kbits/s speed=0.202x    frame=   58 fps=2.0 q=-0.0 size=   15872kB time=00:00:05.80 bitrate=22417.8kbits/s speed=0.202x    frame=   60 fps=2.0 q=-0.0 size=   16640kB time=00:00:06.00 bitrate=22719.1kbits/s speed=0.202x    frame=   61 fps=2.0 q=-0.0 size=   16640kB time=00:00:06.10 bitrate=22346.7kbits/s speed=0.202x    frame=   63 fps=2.0 q=-0.0 size=   17408kB time=00:00:06.30 bitrate=22635.9kbits/s speed=0.203x    frame=   64 fps=2.0 q=-0.0 size=   17408kB time=00:00:06.40 bitrate=22282.2kbits/s speed=0.202x    frame=   66 fps=2.0 q=-0.0 size=   18176kB time=00:00:06.60 bitrate=22560.3kbits/s speed=0.203x    frame=   67 fps=2.0 q=-0.0 size=   18176kB time=00:00:06.70 bitrate=22223.6kbits/s speed=0.202x    frame=   69 fps=2.0 q=-0.0 size=   19200kB time=00:00:06.80 bitrate=23130.4kbits/s speed= 0.2x    frame=   72 fps=2.0 q=-0.0 size=   19968kB time=00:00:07.20 bitrate=22719.1kbits/s speed= 0.2x    [out#0/gif @ 0x5588a5bf64c0] video:20869kB audio:0kB subtitle:0kB other streams:0kB global headers:0kB muxing overhead: 0.000094%
frame=   73 fps=2.0 q=-0.0 Lsize=   20869kB time=00:00:07.20 bitrate=23743.9kbits/s speed=0.199x    
